<svg width="127" height="37" viewBox="0 0 127 37" fill="none" xmlns="http://www.w3.org/2000/svg">
<path d="M39.988 21.431V18.212H44.715C45.3337 18.212 45.8943 18.0863 46.397 17.835C46.8997 17.5837 47.296 17.226 47.586 16.762C47.876 16.2787 48.021 15.6987 48.021 15.022C48.021 14.3647 47.876 13.7943 47.586 13.311C47.296 12.8277 46.8997 12.4603 46.397 12.209C45.8943 11.9577 45.3337 11.832 44.715 11.832H39.988V8.613H45.121C46.4163 8.613 47.5763 8.874 48.601 9.396C49.645 9.918 50.4667 10.6623 51.066 11.629C51.6653 12.5763 51.965 13.7073 51.965 15.022C51.965 16.3367 51.6653 17.4773 51.066 18.444C50.4667 19.3913 49.645 20.126 48.601 20.648C47.5763 21.17 46.4163 21.431 45.121 21.431H39.988ZM37.088 29V8.613H41.032V29H37.088ZM56.0021 29V14.993H59.8011V29H56.0021ZM59.8011 21.257L58.3221 20.271C58.4961 18.5503 58.9988 17.197 59.8301 16.211C60.6615 15.2057 61.8601 14.703 63.4261 14.703C64.1028 14.703 64.7118 14.819 65.2531 15.051C65.7945 15.2637 66.2875 15.6213 66.7321 16.124L64.3541 18.85C64.1415 18.618 63.8805 18.444 63.5711 18.328C63.2811 18.212 62.9428 18.154 62.5561 18.154C61.7441 18.154 61.0771 18.415 60.5551 18.937C60.0525 19.4397 59.8011 20.213 59.8011 21.257ZM69.5166 29V14.993H73.3446V29H69.5166ZM71.4306 12.731C70.8119 12.731 70.2996 12.528 69.8936 12.122C69.4876 11.6967 69.2846 11.1747 69.2846 10.556C69.2846 9.95667 69.4876 9.44433 69.8936 9.019C70.2996 8.59367 70.8119 8.381 71.4306 8.381C72.0686 8.381 72.5809 8.59367 72.9676 9.019C73.3736 9.44433 73.5766 9.95667 73.5766 10.556C73.5766 11.1747 73.3736 11.6967 72.9676 12.122C72.5809 12.528 72.0686 12.731 71.4306 12.731ZM87.5849 29V20.967C87.5849 20.1357 87.3239 19.459 86.8019 18.937C86.2799 18.415 85.6033 18.154 84.7719 18.154C84.2306 18.154 83.7473 18.27 83.3219 18.502C82.8966 18.734 82.5583 19.0627 82.3069 19.488C82.0749 19.9133 81.9589 20.4063 81.9589 20.967L80.4799 20.213C80.4799 19.111 80.7119 18.154 81.1759 17.342C81.6593 16.5107 82.3166 15.863 83.1479 15.399C83.9986 14.935 84.9556 14.703 86.0189 14.703C87.0436 14.703 87.9619 14.964 88.7739 15.486C89.5859 15.9887 90.2239 16.6557 90.6879 17.487C91.1519 18.299 91.3839 19.1787 91.3839 20.126V29H87.5849ZM78.1599 29V14.993H81.9589V29H78.1599ZM102.477 29.29C101.066 29.29 99.7898 28.971 98.6491 28.333C97.5278 27.6757 96.6288 26.796 95.9521 25.694C95.2948 24.5727 94.9661 23.3257 94.9661 21.953C94.9661 20.5803 95.2948 19.3527 95.9521 18.27C96.6094 17.168 97.5084 16.298 98.6491 15.66C99.7898 15.0027 101.056 14.674 102.448 14.674C103.879 14.674 105.155 15.0027 106.276 15.66C107.417 16.298 108.316 17.168 108.973 18.27C109.63 19.3527 109.959 20.5803 109.959 21.953C109.959 23.3257 109.63 24.5727 108.973 25.694C108.316 26.796 107.417 27.6757 106.276 28.333C105.155 28.971 103.888 29.29 102.477 29.29ZM102.448 25.752C103.163 25.752 103.792 25.5973 104.333 25.288C104.894 24.9593 105.319 24.5147 105.609 23.954C105.918 23.374 106.073 22.7167 106.073 21.982C106.073 21.2473 105.918 20.5997 105.609 20.039C105.3 19.4783 104.874 19.0433 104.333 18.734C103.792 18.4053 103.163 18.241 102.448 18.241C101.752 18.241 101.133 18.4053 100.592 18.734C100.051 19.0433 99.6254 19.4783 99.3161 20.039C99.0068 20.5997 98.8521 21.2473 98.8521 21.982C98.8521 22.7167 99.0068 23.374 99.3161 23.954C99.6254 24.5147 100.051 24.9593 100.592 25.288C101.133 25.5973 101.752 25.752 102.448 25.752ZM122.245 29L118.562 23.316L117.779 22.736L112.327 14.993H116.822L120.215 20.126L120.94 20.677L126.711 29H122.245ZM112.037 29L117.75 20.996L119.925 23.577L116.329 29H112.037ZM121.085 22.707L118.852 20.155L122.187 14.993H126.45L121.085 22.707Z" fill="black"/>
<path d="M7.70804 16.2122C7.70804 13.6558 9.05794 11.4144 11.0868 10.1508C12.1066 9.51549 13.2981 9.12615 14.5759 9.0704C16.0246 8.25101 17.629 7.95369 19.1702 8.11916C18.7475 7.54488 18.2457 7.03255 17.6806 6.5963C16.3885 5.5964 14.7654 5 13 5C8.77942 5 5.35706 8.40232 5.35706 12.6001C5.35706 14.9176 6.40174 16.9918 8.04707 18.3863C7.82817 17.7005 7.70804 16.9705 7.70804 16.2122Z" fill="#F9B233"/>
<path d="M7.50872 17.4423C6.32344 16.1141 5.65961 14.3975 5.65961 12.6003C5.65961 10.6501 6.4231 8.8175 7.80949 7.43887C9.19587 6.06024 11.0396 5.30103 13 5.30103C14.6444 5.30103 16.1999 5.83106 17.4964 6.8345C17.8639 7.11855 18.2021 7.43445 18.5073 7.77778C18.4539 7.77689 18.4005 7.77601 18.348 7.77601C17.0034 7.77601 15.6713 8.1211 14.4914 8.77502C13.2296 8.84316 11.9989 9.22985 10.9275 9.89792C8.72336 11.2712 7.40727 13.6321 7.40727 16.2132C7.40638 16.6265 7.44109 17.0371 7.50872 17.4423Z" fill="url(#paint0_linear_71_2021)"/>
<path d="M6.57615 13.8963C6.57615 11.9461 7.33964 10.1135 8.72603 8.73487C10.1124 7.35624 11.9562 6.59702 13.9165 6.59702C15.3625 6.59702 16.74 7.0076 17.9324 7.78894C18.0704 7.78186 18.2083 7.77567 18.3471 7.77567C18.4005 7.77567 18.453 7.77656 18.5064 7.77744C18.2012 7.43411 17.863 7.11821 17.4955 6.83417C16.1999 5.82984 14.6444 5.2998 13 5.2998C11.0388 5.2998 9.19587 6.05902 7.80949 7.43765C6.4231 8.81628 5.65961 10.6497 5.65961 12.6C5.65961 14.3865 6.31632 16.0934 7.48825 17.4181C6.8965 16.3518 6.57615 15.1431 6.57615 13.8963Z" fill="url(#paint1_linear_71_2021)"/>
<path opacity="0.2" d="M14.5768 9.07004C16.0255 8.25065 17.6299 7.95334 19.1711 8.11881C18.7485 7.54453 18.2466 7.03219 17.6815 6.59595C16.3236 6.69417 14.9942 7.09678 13.7804 7.79318C12.7206 8.40197 11.8112 9.2072 11.0869 10.1505C12.1075 9.51513 13.2981 9.12579 14.5768 9.07004Z" fill="black"/>
<path d="M8.14406 22.038C5.91766 20.7594 4.64072 18.4764 4.5553 16.0979C4.5117 14.9015 4.76797 13.6813 5.35883 12.5522C5.36951 10.8957 5.91232 9.36488 6.82798 8.11987C6.1161 8.19686 5.41934 8.37295 4.75729 8.64106C3.23921 9.25516 1.90799 10.3551 1.02526 11.8744C-1.08546 15.5094 0.167445 20.1576 3.82295 22.2557C5.84113 23.4148 8.16987 23.552 10.2067 22.8326C9.5002 22.6795 8.80433 22.4176 8.14406 22.038Z" fill="#FC6868"/>
<path d="M9.1158 22.8252C7.36636 23.1818 5.53949 22.8959 3.97425 21.9969C2.27641 21.0218 1.06088 19.4476 0.553661 17.5646C0.0464461 15.6816 0.306282 13.7137 1.2869 12.0253C2.10912 10.6095 3.34868 9.5353 4.87033 8.91943C5.3019 8.74511 5.74594 8.6115 6.19709 8.52124C6.16951 8.56637 6.14281 8.61238 6.11612 8.65751C5.44339 9.8158 5.07855 11.1351 5.05808 12.4784C4.48591 13.5986 4.20828 14.8525 4.25366 16.109C4.34709 18.6937 5.74505 21.0076 7.9937 22.2987C8.3532 22.5048 8.72872 22.6809 9.1158 22.8252Z" fill="url(#paint2_linear_71_2021)"/>
<path d="M5.56174 21.8553C3.86391 20.8802 2.64926 19.3069 2.14115 17.423C1.63394 15.54 1.89378 13.5721 2.87439 11.8837C3.59784 10.6378 4.64341 9.65741 5.92035 9.02119C5.98264 8.89908 6.04671 8.77697 6.11612 8.65751C6.14281 8.6115 6.16951 8.56637 6.19709 8.52124C5.74505 8.61238 5.30101 8.74511 4.87033 8.91943C3.34779 9.5353 2.10912 10.6086 1.2869 12.0253C0.306282 13.7137 0.0464461 15.6816 0.553661 17.5646C1.06088 19.4485 2.27552 21.0218 3.97425 21.9969C5.5306 22.8906 7.345 23.1782 9.08466 22.8314C7.85933 22.8066 6.64736 22.4783 5.56174 21.8553Z" fill="url(#paint3_linear_71_2021)"/>
<path opacity="0.2" d="M5.35886 12.5522C5.36954 10.8957 5.91234 9.36488 6.828 8.11987C6.11612 8.19686 5.41937 8.37295 4.75732 8.64106C4.16379 9.85953 3.84967 11.2054 3.84967 12.5991C3.84967 13.8158 4.09616 15.0015 4.55532 16.0979C4.51172 14.9015 4.768 13.6813 5.35886 12.5522Z" fill="black"/>
<path d="M13.4361 24.5761C11.2097 25.8547 8.58287 25.8122 6.4677 24.6964C5.40432 24.1363 4.46998 23.3045 3.78213 22.2321C2.34413 21.395 1.28254 20.1615 0.656971 18.751C0.36777 19.4022 0.172892 20.0907 0.0750088 20.795C-0.149234 22.4081 0.142637 24.1053 1.02537 25.6255C3.1361 29.2606 7.81048 30.5056 11.4651 28.4076C13.4842 27.2484 14.7682 25.3114 15.1589 23.1983C14.6721 23.7293 14.0964 24.1973 13.4361 24.5761Z" fill="#A82498"/>
<path d="M14.6071 24.1329C14.0429 25.8177 12.8799 27.2485 11.3146 28.1466C9.61681 29.1218 7.63867 29.381 5.74418 28.8758C3.84969 28.3714 2.26664 27.1635 1.28603 25.4752C0.464695 24.0585 0.148798 22.4552 0.37393 20.8358C0.437999 20.3775 0.543891 19.928 0.690717 19.4944C0.716522 19.5404 0.742328 19.5864 0.769024 19.6324C1.44175 20.7907 2.40813 21.765 3.5676 22.4543C4.25724 23.5073 5.21027 24.3736 6.32703 24.962C8.62462 26.1743 11.3396 26.1265 13.5873 24.8363C13.9468 24.6293 14.2885 24.3948 14.6071 24.1329Z" fill="url(#paint4_linear_71_2021)"/>
<path d="M11.9856 26.7084C10.2877 27.6835 8.30961 27.9428 6.41512 27.4375C4.52152 26.9331 2.93847 25.7253 1.95786 24.0361C1.23441 22.7902 0.904273 21.3992 0.987919 19.9816C0.912281 19.8666 0.838424 19.7507 0.769015 19.6312C0.74232 19.5852 0.716514 19.5392 0.690709 19.4932C0.543883 19.9276 0.437991 20.3763 0.373922 20.8346C0.148789 22.4531 0.464687 24.0573 1.28691 25.474C2.26752 27.1623 3.85057 28.3702 5.74506 28.8746C7.63866 29.3798 9.6168 29.1205 11.3155 28.1454C12.8719 27.2517 14.0296 25.8333 14.5973 24.1609C13.9637 25.205 13.0712 26.0854 11.9856 26.7084Z" fill="url(#paint5_linear_71_2021)"/>
<path opacity="0.2" d="M3.78201 22.2321C2.34401 21.395 1.28242 20.1615 0.656852 18.751C0.367651 19.4022 0.172774 20.0907 0.0748901 20.795C0.840162 21.9153 1.85459 22.8585 3.06835 23.5558C4.12816 24.1646 5.28408 24.5451 6.46758 24.6973C5.40421 24.1363 4.46986 23.3054 3.78201 22.2321Z" fill="black"/>
<path d="M18.2919 21.2877C18.2919 23.844 16.942 26.0854 14.9132 27.349C13.8934 27.9843 12.7019 28.3737 11.4241 28.4294C9.97629 29.2497 8.37099 29.5461 6.82977 29.3807C7.25245 29.9549 7.75433 30.4673 8.31938 30.9035C9.61234 31.9034 11.2354 32.4998 13.0009 32.4998C17.2223 32.4998 20.6438 29.0975 20.6438 24.8997C20.6438 22.5822 19.5991 20.5081 17.9538 19.1135C18.1727 19.7993 18.2919 20.5293 18.2919 21.2877Z" fill="#95C11F"/>
<path d="M18.4921 20.0581C19.6774 21.3863 20.3413 23.1029 20.3413 24.9001C20.3413 26.8504 19.5778 28.6829 18.1914 30.0616C16.805 31.4402 14.9612 32.1994 13 32.1994C11.3555 32.1994 9.80097 31.6694 8.50357 30.6659C8.13606 30.3819 7.79792 30.066 7.49359 29.7227C7.54698 29.7235 7.60037 29.7244 7.65287 29.7244C8.99744 29.7244 10.3295 29.3793 11.5095 28.7254C12.7713 28.6582 14.002 28.2706 15.0733 27.6025C17.2775 26.2301 18.5936 23.8684 18.5936 21.2872C18.5936 20.8748 18.5598 20.4634 18.4921 20.0581Z" fill="url(#paint6_linear_71_2021)"/>
<path d="M19.4238 23.6034C19.4238 25.5537 18.6603 27.3862 17.2739 28.7657C15.8876 30.1444 14.0438 30.9036 12.0834 30.9036C10.6365 30.9036 9.25995 30.493 8.06755 29.7117C7.92962 29.7187 7.79169 29.7249 7.65287 29.7249C7.59948 29.7249 7.54609 29.7241 7.49359 29.7232C7.79881 30.0665 8.13695 30.3824 8.50357 30.6664C9.80097 31.6699 11.3555 32.1999 13 32.1999C14.9612 32.1999 16.8041 31.4407 18.1914 30.0621C19.5778 28.6835 20.3413 26.85 20.3413 24.9006C20.3413 23.1141 19.6845 21.4072 18.5126 20.0825C19.1035 21.1488 19.4247 22.3566 19.4238 23.6034Z" fill="url(#paint7_linear_71_2021)"/>
<path opacity="0.2" d="M11.4241 28.4298C9.97629 29.2501 8.37099 29.5465 6.82977 29.381C7.25245 29.9553 7.75433 30.4676 8.31938 30.9039C9.67729 30.8057 11.0067 30.403 12.2205 29.7067C13.2803 29.0979 14.1897 28.2935 14.9141 27.3494C13.8934 27.9847 12.7028 28.374 11.4241 28.4298Z" fill="black"/>
<path d="M17.8568 15.4618C20.0832 16.7395 21.3593 19.0234 21.4456 21.4019C21.4892 22.5983 21.2329 23.8185 20.6421 24.9476C20.6314 26.6041 20.0877 28.1349 19.1729 29.3799C19.8848 29.3029 20.5816 29.1268 21.2436 28.8587C22.7608 28.2455 24.092 27.1456 24.9748 25.6254C27.0855 21.9904 25.8326 17.3421 22.1771 15.2441C20.1589 14.0849 17.8301 13.9478 15.7933 14.6672C16.5007 14.8203 17.1966 15.0822 17.8568 15.4618Z" fill="#662483"/>
<path d="M16.8851 14.6752C18.6345 14.3186 20.4623 14.6044 22.0275 15.5035C23.7254 16.4786 24.94 18.0528 25.4481 19.9358C25.9553 21.8197 25.6955 23.7867 24.7149 25.475C23.8926 26.8908 22.6531 27.9651 21.1305 28.5809C20.6999 28.7553 20.2549 28.888 19.8038 28.9791C19.8314 28.934 19.859 28.888 19.8848 28.8429C20.5575 27.6846 20.9223 26.3652 20.9428 25.022C21.515 23.9017 21.7926 22.6479 21.7472 21.3914C21.6538 18.8067 20.2558 16.4927 18.0081 15.2017C17.6468 14.9947 17.2722 14.8186 16.8851 14.6752Z" fill="url(#paint8_linear_71_2021)"/>
<path d="M20.4392 15.6452C22.137 16.6194 23.3517 18.1936 23.8598 20.0775C24.367 21.9605 24.1071 23.9276 23.1265 25.6168C22.4031 26.8627 21.3575 27.8422 20.0806 28.4793C20.0183 28.6015 19.9542 28.7236 19.8848 28.843C19.8581 28.889 19.8314 28.9342 19.8038 28.9793C20.255 28.8882 20.6999 28.7554 21.1306 28.5811C22.6531 27.9652 23.8918 26.8919 24.7149 25.4752C25.6955 23.7869 25.9554 21.8189 25.4481 19.9359C24.9409 18.052 23.7263 16.4779 22.0276 15.5036C20.4712 14.6099 18.6568 14.3223 16.9163 14.6692C18.1407 14.6931 19.3536 15.0214 20.4392 15.6452Z" fill="url(#paint9_linear_71_2021)"/>
<path opacity="0.2" d="M20.642 24.9475C20.6313 26.604 20.0876 28.1348 19.1729 29.3798C19.8847 29.3029 20.5815 29.1268 21.2435 28.8587C21.8371 27.6402 22.1512 26.2943 22.1512 24.9006C22.1512 23.6839 21.9047 22.4982 21.4446 21.4019C21.4891 22.5982 21.232 23.8184 20.642 24.9475Z" fill="black"/>
<path d="M12.5639 12.9239C14.7903 11.6453 17.4172 11.6878 19.5324 12.8036C20.5957 13.3637 21.5301 14.1955 22.2179 15.268C23.6559 16.1051 24.7166 17.3386 25.3431 18.749C25.6323 18.0978 25.8272 17.4094 25.925 16.705C26.1493 15.0919 25.8574 13.3956 24.9747 11.8754C22.864 8.24033 18.1896 6.99532 14.535 9.09335C12.5159 10.2525 11.2327 12.1886 10.8412 14.3026C11.3279 13.7708 11.9037 13.3027 12.5639 12.9239Z" fill="#25BBEF"/>
<path d="M11.3938 13.3678C11.958 11.683 13.121 10.2522 14.6862 9.35405C16.3841 8.37981 18.3622 8.12055 20.2567 8.62492C22.1512 9.1293 23.7334 10.338 24.714 12.0264C25.5362 13.443 25.8521 15.0464 25.627 16.6648C25.5629 17.1232 25.457 17.5727 25.3102 18.0063C25.2844 17.9603 25.2586 17.9143 25.2319 17.8683C24.5591 16.71 23.5928 15.7357 22.4333 15.0464C21.7437 13.9934 20.7906 13.1271 19.6739 12.5387C17.3763 11.3273 14.6613 11.3733 12.4136 12.6644C12.0532 12.8714 11.7124 13.1068 11.3938 13.3678Z" fill="url(#paint10_linear_71_2021)"/>
<path d="M14.0152 10.7918C15.7131 9.81669 17.6912 9.55742 19.5857 10.0627C21.4793 10.5671 23.0624 11.7749 24.043 13.4641C24.7655 14.71 25.0965 16.101 25.0129 17.5186C25.0885 17.6336 25.1624 17.7495 25.2318 17.869C25.2585 17.9141 25.2843 17.961 25.3101 18.007C25.4569 17.5726 25.5628 17.1239 25.6269 16.6656C25.852 15.0472 25.5361 13.4429 24.7139 12.0271C23.7333 10.3388 22.1503 9.13092 20.2567 8.62565C18.3622 8.12128 16.384 8.38055 14.6862 9.35479C13.1298 10.2485 11.9721 11.667 11.4044 13.3394C12.0371 12.2952 12.9287 11.4148 14.0152 10.7918Z" fill="url(#paint11_linear_71_2021)"/>
<path opacity="0.2" d="M22.218 15.268C23.656 16.1051 24.7167 17.3386 25.3431 18.7491C25.6323 18.0978 25.8272 17.4094 25.9251 16.705C25.1598 15.5848 24.1454 14.6415 22.9316 13.9442C21.8718 13.3354 20.7159 12.9549 19.5315 12.8027C20.5958 13.3637 21.5301 14.1946 22.218 15.268Z" fill="black"/>
<defs>
<linearGradient id="paint0_linear_71_2021" x1="10.7952" y1="15.2226" x2="12.0638" y2="9.78197" gradientUnits="userSpaceOnUse">
<stop stop-color="white" stop-opacity="0.3"/>
<stop offset="1" stop-color="white" stop-opacity="0"/>
</linearGradient>
<linearGradient id="paint1_linear_71_2021" x1="10.7986" y1="15.208" x2="12.0654" y2="9.77508" gradientUnits="userSpaceOnUse">
<stop stop-color="white" stop-opacity="0.3"/>
<stop offset="1" stop-color="white" stop-opacity="0"/>
</linearGradient>
<linearGradient id="paint2_linear_71_2021" x1="8.82562" y1="18.8846" x2="4.75277" y2="15.0388" gradientUnits="userSpaceOnUse">
<stop stop-color="white" stop-opacity="0.3"/>
<stop offset="1" stop-color="white" stop-opacity="0"/>
</linearGradient>
<linearGradient id="paint3_linear_71_2021" x1="8.81498" y1="18.8747" x2="4.74784" y2="15.0343" gradientUnits="userSpaceOnUse">
<stop stop-color="white" stop-opacity="0.3"/>
<stop offset="1" stop-color="white" stop-opacity="0"/>
</linearGradient>
<linearGradient id="paint4_linear_71_2021" x1="11.0307" y1="22.4129" x2="5.65915" y2="24.0443" gradientUnits="userSpaceOnUse">
<stop stop-color="white" stop-opacity="0.3"/>
<stop offset="1" stop-color="white" stop-opacity="0"/>
</linearGradient>
<linearGradient id="paint5_linear_71_2021" x1="11.0167" y1="22.4168" x2="5.65269" y2="24.0458" gradientUnits="userSpaceOnUse">
<stop stop-color="white" stop-opacity="0.3"/>
<stop offset="1" stop-color="white" stop-opacity="0"/>
</linearGradient>
<linearGradient id="paint6_linear_71_2021" x1="15.2054" y1="22.2778" x2="13.9367" y2="27.7185" gradientUnits="userSpaceOnUse">
<stop stop-color="white" stop-opacity="0.3"/>
<stop offset="1" stop-color="white" stop-opacity="0"/>
</linearGradient>
<linearGradient id="paint7_linear_71_2021" x1="15.202" y1="22.2916" x2="13.9352" y2="27.7247" gradientUnits="userSpaceOnUse">
<stop stop-color="white" stop-opacity="0.3"/>
<stop offset="1" stop-color="white" stop-opacity="0"/>
</linearGradient>
<linearGradient id="paint8_linear_71_2021" x1="17.175" y1="18.6148" x2="21.2478" y2="22.4606" gradientUnits="userSpaceOnUse">
<stop stop-color="white" stop-opacity="0.3"/>
<stop offset="1" stop-color="white" stop-opacity="0"/>
</linearGradient>
<linearGradient id="paint9_linear_71_2021" x1="17.1857" y1="18.6249" x2="21.2528" y2="22.4654" gradientUnits="userSpaceOnUse">
<stop stop-color="white" stop-opacity="0.3"/>
<stop offset="1" stop-color="white" stop-opacity="0"/>
</linearGradient>
<linearGradient id="paint10_linear_71_2021" x1="14.9698" y1="15.0879" x2="20.3413" y2="13.4565" gradientUnits="userSpaceOnUse">
<stop stop-color="white" stop-opacity="0.3"/>
<stop offset="1" stop-color="white" stop-opacity="0"/>
</linearGradient>
<linearGradient id="paint11_linear_71_2021" x1="14.9838" y1="15.0835" x2="20.3477" y2="13.4545" gradientUnits="userSpaceOnUse">
<stop stop-color="white" stop-opacity="0.3"/>
<stop offset="1" stop-color="white" stop-opacity="0"/>
</linearGradient>
</defs>
</svg>